<svg width="24" height="24" viewBox="0 0 24 24" fill="none" xmlns="http://www.w3.org/2000/svg">
<path fill-rule="evenodd" clip-rule="evenodd" d="M14.0804 3.99871C14.3733 4.29161 14.3733 4.76648 14.0804 5.05937L5.15067 13.9891C3.7508 15.389 3.76252 17.7225 5.24158 19.2015C6.72066 20.6806 9.05412 20.6923 10.4539 19.2924L19.3837 10.3627C19.6766 10.0698 20.1515 10.0698 20.4444 10.3627C20.7372 10.6556 20.7372 11.1304 20.4444 11.4233L11.5146 20.3531C11.5146 20.3531 11.5146 20.3531 11.5146 20.3531C9.50023 22.3675 6.21659 22.2978 4.18092 20.2622C2.14527 18.2265 2.07558 14.9429 4.09001 12.9285L13.0197 3.99872C13.3126 3.70582 13.7875 3.70582 14.0804 3.99871Z" fill="white"/>
<path fill-rule="evenodd" clip-rule="evenodd" d="M18.1889 13.3481C18.1998 13.7622 17.873 14.1067 17.4589 14.1176L4.38693 14.4617C3.97286 14.4726 3.62835 14.1458 3.61745 13.7317C3.60655 13.3176 3.93339 12.9731 4.34746 12.9622L17.4195 12.6181C17.8335 12.6072 18.178 12.934 18.1889 13.3481Z" fill="white"/>
<path d="M14.6965 10.4535C15.087 10.0629 15.087 9.4298 14.6965 9.0393C14.306 8.64875 13.6728 8.64875 13.2823 9.0393C12.8918 9.4298 12.8918 10.0629 13.2823 10.4535C13.6728 10.844 14.306 10.844 14.6965 10.4535Z" fill="white"/>
<path d="M11.8679 11.8678C12.2584 11.4773 12.2584 10.8441 11.8679 10.4536C11.4774 10.0631 10.8442 10.0631 10.4537 10.4536C10.0631 10.8441 10.0631 11.4773 10.4537 11.8678C10.8442 12.2584 11.4774 12.2584 11.8679 11.8678Z" fill="white"/>
<path fill-rule="evenodd" clip-rule="evenodd" d="M11.2519 2.23095C11.5448 1.93806 12.0197 1.93806 12.3126 2.23096L22.212 12.1305C22.5049 12.4234 22.5049 12.8982 22.212 13.1911C21.9191 13.484 21.4442 13.484 21.1513 13.1911L11.2519 3.29161C10.959 2.99872 10.959 2.52384 11.2519 2.23095Z" fill="white"/>
</svg>
