<svg width="24" height="25" viewBox="0 0 24 25" fill="none" xmlns="http://www.w3.org/2000/svg">
<path d="M22 12.0443C22 17.5875 17.5228 22.0812 12 22.0812C6.47715 22.0812 2 17.5875 2 12.0443C2 6.50106 6.47715 2.00739 12 2.00739M22 12.0443C22 6.50106 17.5228 2.00739 12 2.00739M22 12.0443C22 10.7262 21.7414 9.42104 21.2388 8.20332C20.7363 6.98559 19.9997 5.87912 19.0711 4.94713C18.1425 4.01511 17.0401 3.2758 15.8268 2.7714C14.6136 2.267 13.3132 2.00739 12 2.00739M22 12.0443H12V2.00739" stroke="#046639" stroke-width="1.5" stroke-linecap="round" stroke-linejoin="round"/>
</svg>
