<svg width="282" height="56" viewBox="0 0 282 56" fill="none" xmlns="http://www.w3.org/2000/svg">
<path d="M73.84 23V8.4H76.68V23H73.84ZM79.6034 23V20.8L84.9634 14.36V14.68L84.5434 14.12L84.8834 14.28H79.5834V12.14H87.8634V14.34L82.5034 20.78V20.48L82.9434 21.04L82.6034 20.86H88.0834V23H79.6034ZM97.0248 23V19.78H96.5648V16.2C96.5648 15.5733 96.4115 15.1067 96.1048 14.8C95.7982 14.4933 95.3248 14.34 94.6848 14.34C94.3515 14.34 93.9515 14.3467 93.4848 14.36C93.0182 14.3733 92.5448 14.3933 92.0648 14.42C91.5982 14.4333 91.1782 14.4533 90.8048 14.48V12.12C91.1115 12.0933 91.4582 12.0667 91.8448 12.04C92.2315 12.0133 92.6248 12 93.0248 12C93.4382 11.9867 93.8248 11.98 94.1848 11.98C95.3048 11.98 96.2315 12.1267 96.9648 12.42C97.7115 12.7133 98.2715 13.1733 98.6448 13.8C99.0315 14.4267 99.2248 15.2467 99.2248 16.26V23H97.0248ZM93.5248 23.28C92.7382 23.28 92.0448 23.14 91.4448 22.86C90.8582 22.58 90.3982 22.18 90.0648 21.66C89.7448 21.14 89.5848 20.5133 89.5848 19.78C89.5848 18.98 89.7782 18.3267 90.1648 17.82C90.5648 17.3133 91.1182 16.9333 91.8248 16.68C92.5448 16.4267 93.3848 16.3 94.3448 16.3H96.8648V17.96H94.3048C93.6648 17.96 93.1715 18.12 92.8248 18.44C92.4915 18.7467 92.3248 19.1467 92.3248 19.64C92.3248 20.1333 92.4915 20.5333 92.8248 20.84C93.1715 21.1467 93.6648 21.3 94.3048 21.3C94.6915 21.3 95.0448 21.2333 95.3648 21.1C95.6982 20.9533 95.9715 20.7133 96.1848 20.38C96.4115 20.0333 96.5382 19.5667 96.5648 18.98L97.2448 19.76C97.1782 20.52 96.9915 21.16 96.6848 21.68C96.3915 22.2 95.9782 22.6 95.4448 22.88C94.9248 23.1467 94.2848 23.28 93.5248 23.28ZM108.783 23.36C107.889 23.36 107.103 23.1733 106.423 22.8C105.743 22.4133 105.209 21.8533 104.823 21.12C104.436 20.3867 104.223 19.5 104.183 18.46H104.603V23H102.403V8.4H105.183V15.7L104.443 16.84C104.496 15.72 104.716 14.7867 105.103 14.04C105.503 13.2933 106.036 12.7333 106.703 12.36C107.369 11.9867 108.123 11.8 108.963 11.8C109.709 11.8 110.389 11.94 111.003 12.22C111.616 12.5 112.143 12.8933 112.583 13.4C113.023 13.8933 113.356 14.4733 113.583 15.14C113.823 15.8067 113.943 16.5333 113.943 17.32V17.74C113.943 18.5267 113.823 19.26 113.583 19.94C113.343 20.62 112.996 21.22 112.543 21.74C112.089 22.2467 111.543 22.6467 110.903 22.94C110.276 23.22 109.569 23.36 108.783 23.36ZM108.163 21.02C108.763 21.02 109.283 20.8733 109.723 20.58C110.176 20.2733 110.529 19.86 110.783 19.34C111.036 18.82 111.163 18.22 111.163 17.54C111.163 16.8467 111.036 16.2467 110.783 15.74C110.529 15.2333 110.176 14.84 109.723 14.56C109.283 14.28 108.763 14.14 108.163 14.14C107.616 14.14 107.109 14.26 106.643 14.5C106.189 14.74 105.816 15.0933 105.523 15.56C105.243 16.0267 105.103 16.5867 105.103 17.24V18.04C105.103 18.6667 105.249 19.2 105.543 19.64C105.836 20.08 106.216 20.42 106.683 20.66C107.149 20.9 107.643 21.02 108.163 21.02ZM121.447 23.38C120.514 23.38 119.694 23.22 118.987 22.9C118.294 22.58 117.714 22.1533 117.247 21.62C116.794 21.0733 116.447 20.4667 116.207 19.8C115.98 19.1333 115.867 18.4533 115.867 17.76V17.38C115.867 16.66 115.98 15.9667 116.207 15.3C116.447 14.62 116.794 14.02 117.247 13.5C117.714 12.9667 118.287 12.5467 118.967 12.24C119.647 11.92 120.434 11.76 121.327 11.76C122.5 11.76 123.48 12.02 124.267 12.54C125.067 13.0467 125.667 13.72 126.067 14.56C126.467 15.3867 126.667 16.28 126.667 17.24V18.24H117.047V16.54H124.927L124.067 17.38C124.067 16.6867 123.967 16.0933 123.767 15.6C123.567 15.1067 123.26 14.7267 122.847 14.46C122.447 14.1933 121.94 14.06 121.327 14.06C120.714 14.06 120.194 14.2 119.767 14.48C119.34 14.76 119.014 15.1667 118.787 15.7C118.574 16.22 118.467 16.8467 118.467 17.58C118.467 18.26 118.574 18.8667 118.787 19.4C119 19.92 119.327 20.3333 119.767 20.64C120.207 20.9333 120.767 21.08 121.447 21.08C122.127 21.08 122.68 20.9467 123.107 20.68C123.534 20.4 123.807 20.06 123.927 19.66H126.487C126.327 20.4067 126.02 21.06 125.567 21.62C125.114 22.18 124.534 22.6133 123.827 22.92C123.134 23.2267 122.34 23.38 121.447 23.38ZM129.329 23V8.4H132.109V23H129.329ZM127.969 10.48V8.4H132.109V10.48H127.969Z" fill="#212121"/>
<path d="M73.984 38.808C73.7067 38.808 73.472 38.712 73.28 38.52C73.088 38.328 72.992 38.0933 72.992 37.816C72.992 37.5387 73.088 37.304 73.28 37.112C73.472 36.92 73.7067 36.824 73.984 36.824C74.2507 36.824 74.4747 36.92 74.656 37.112C74.848 37.304 74.944 37.5387 74.944 37.816C74.944 38.0933 74.848 38.328 74.656 38.52C74.4747 38.712 74.2507 38.808 73.984 38.808ZM74.688 40.232V49H73.232V40.232H74.688ZM78.4575 47.8H82.7615V49H76.7935V47.8L81.0495 41.416H76.8255V40.232H82.7295V41.416L78.4575 47.8ZM84.3067 44.584C84.3067 43.688 84.4881 42.904 84.8507 42.232C85.2134 41.5493 85.7094 41.0213 86.3387 40.648C86.9787 40.2747 87.6881 40.088 88.4667 40.088C89.2347 40.088 89.9014 40.2533 90.4668 40.584C91.0321 40.9147 91.4534 41.3307 91.7308 41.832V40.232H93.2028V49H91.7308V47.368C91.4427 47.88 91.0107 48.3067 90.4348 48.648C89.8694 48.9787 89.2081 49.144 88.4507 49.144C87.6721 49.144 86.9681 48.952 86.3387 48.568C85.7094 48.184 85.2134 47.6453 84.8507 46.952C84.4881 46.2587 84.3067 45.4693 84.3067 44.584ZM91.7308 44.6C91.7308 43.9387 91.5974 43.3627 91.3307 42.872C91.0641 42.3813 90.7014 42.008 90.2428 41.752C89.7947 41.4853 89.2987 41.352 88.7547 41.352C88.2107 41.352 87.7147 41.48 87.2667 41.736C86.8187 41.992 86.4614 42.3653 86.1947 42.856C85.9281 43.3467 85.7947 43.9227 85.7947 44.584C85.7947 45.256 85.9281 45.8427 86.1947 46.344C86.4614 46.8347 86.8187 47.2133 87.2667 47.48C87.7147 47.736 88.2107 47.864 88.7547 47.864C89.2987 47.864 89.7947 47.736 90.2428 47.48C90.7014 47.2133 91.0641 46.8347 91.3307 46.344C91.5974 45.8427 91.7308 45.2613 91.7308 44.6ZM97.3193 41.864C97.6179 41.3413 98.0553 40.9147 98.6313 40.584C99.2073 40.2533 99.8633 40.088 100.599 40.088C101.389 40.088 102.098 40.2747 102.727 40.648C103.357 41.0213 103.853 41.5493 104.215 42.232C104.578 42.904 104.759 43.688 104.759 44.584C104.759 45.4693 104.578 46.2587 104.215 46.952C103.853 47.6453 103.351 48.184 102.711 48.568C102.082 48.952 101.378 49.144 100.599 49.144C99.8419 49.144 99.1753 48.9787 98.5993 48.648C98.0339 48.3173 97.6073 47.896 97.3193 47.384V49H95.8633V37.16H97.3193V41.864ZM103.271 44.584C103.271 43.9227 103.138 43.3467 102.871 42.856C102.605 42.3653 102.242 41.992 101.783 41.736C101.335 41.48 100.839 41.352 100.295 41.352C99.7619 41.352 99.2659 41.4853 98.8073 41.752C98.3593 42.008 97.9966 42.3867 97.7193 42.888C97.4526 43.3787 97.3193 43.9493 97.3193 44.6C97.3193 45.2613 97.4526 45.8427 97.7193 46.344C97.9966 46.8347 98.3593 47.2133 98.8073 47.48C99.2659 47.736 99.7619 47.864 100.295 47.864C100.839 47.864 101.335 47.736 101.783 47.48C102.242 47.2133 102.605 46.8347 102.871 46.344C103.138 45.8427 103.271 45.256 103.271 44.584ZM114.876 44.28C114.876 44.5573 114.86 44.8507 114.828 45.16H107.82C107.873 46.024 108.166 46.7013 108.7 47.192C109.244 47.672 109.9 47.912 110.668 47.912C111.297 47.912 111.82 47.768 112.236 47.48C112.662 47.1813 112.961 46.7867 113.132 46.296H114.7C114.465 47.1387 113.996 47.8267 113.292 48.36C112.588 48.8827 111.713 49.144 110.668 49.144C109.836 49.144 109.089 48.9573 108.428 48.584C107.777 48.2107 107.265 47.6827 106.892 47C106.518 46.3067 106.332 45.5067 106.332 44.6C106.332 43.6933 106.513 42.8987 106.876 42.216C107.238 41.5333 107.745 41.0107 108.396 40.648C109.057 40.2747 109.814 40.088 110.668 40.088C111.5 40.088 112.236 40.2693 112.876 40.632C113.516 40.9947 114.006 41.496 114.348 42.136C114.7 42.7653 114.876 43.48 114.876 44.28ZM113.372 43.976C113.372 43.4213 113.249 42.9467 113.004 42.552C112.758 42.1467 112.422 41.8427 111.996 41.64C111.58 41.4267 111.116 41.32 110.604 41.32C109.868 41.32 109.238 41.5547 108.716 42.024C108.204 42.4933 107.91 43.144 107.836 43.976H113.372ZM118.454 37.16V49H116.998V37.16H118.454ZM129.135 38.744C130.319 38.744 131.348 38.968 132.223 39.416C133.098 39.864 133.77 40.4933 134.239 41.304C134.708 42.104 134.943 43.032 134.943 44.088C134.943 44.9307 134.804 45.7413 134.527 46.52C134.25 47.288 133.844 47.912 133.311 48.392C132.788 48.872 132.175 49.112 131.471 49.112C130.938 49.112 130.527 48.9787 130.239 48.712C129.951 48.4453 129.786 48.0827 129.743 47.624C129.412 48.0827 128.991 48.4453 128.479 48.712C127.978 48.9787 127.444 49.112 126.879 49.112C126.068 49.112 125.428 48.8667 124.959 48.376C124.5 47.8747 124.271 47.2027 124.271 46.36C124.271 45.56 124.436 44.8133 124.767 44.12C125.108 43.4267 125.578 42.872 126.175 42.456C126.772 42.0293 127.45 41.816 128.207 41.816C129.22 41.816 129.903 42.2 130.255 42.968L130.431 41.976H131.695L130.895 46.6C130.863 46.8027 130.847 46.9893 130.847 47.16C130.847 47.8 131.13 48.12 131.695 48.12C132.122 48.12 132.49 47.9173 132.799 47.512C133.119 47.1067 133.359 46.6 133.519 45.992C133.679 45.3733 133.759 44.7653 133.759 44.168C133.759 42.7707 133.338 41.688 132.495 40.92C131.663 40.152 130.484 39.768 128.959 39.768C127.69 39.768 126.543 40.0773 125.519 40.696C124.506 41.304 123.711 42.1413 123.135 43.208C122.559 44.2747 122.271 45.4533 122.271 46.744C122.26 48.152 122.682 49.2347 123.535 49.992C124.388 50.76 125.572 51.144 127.087 51.144C128.09 51.144 128.975 50.9627 129.743 50.6L129.935 51.592C128.986 51.9867 127.94 52.184 126.799 52.184C125.658 52.184 124.65 51.9653 123.775 51.528C122.911 51.1013 122.239 50.4827 121.759 49.672C121.29 48.872 121.055 47.9387 121.055 46.872C121.055 45.368 121.402 43.9973 122.095 42.76C122.788 41.512 123.748 40.5307 124.975 39.816C126.212 39.1013 127.599 38.744 129.135 38.744ZM127.311 47.976C127.791 47.976 128.234 47.8373 128.639 47.56C129.044 47.272 129.364 46.888 129.599 46.408C129.834 45.9173 129.951 45.384 129.951 44.808C129.951 44.2533 129.796 43.8053 129.487 43.464C129.188 43.112 128.762 42.936 128.207 42.936C127.695 42.936 127.242 43.0907 126.847 43.4C126.463 43.6987 126.164 44.0987 125.951 44.6C125.738 45.0907 125.631 45.6027 125.631 46.136C125.631 46.7013 125.775 47.1493 126.063 47.48C126.351 47.8107 126.767 47.976 127.311 47.976ZM141.154 40.088C141.912 40.088 142.573 40.2533 143.138 40.584C143.714 40.9147 144.141 41.3307 144.418 41.832V40.232H145.89V49.192C145.89 49.992 145.72 50.7013 145.378 51.32C145.037 51.9493 144.546 52.44 143.906 52.792C143.277 53.144 142.541 53.32 141.698 53.32C140.546 53.32 139.586 53.048 138.818 52.504C138.05 51.96 137.597 51.2187 137.458 50.28H138.898C139.058 50.8133 139.389 51.24 139.89 51.56C140.392 51.8907 140.994 52.056 141.698 52.056C142.498 52.056 143.149 51.8053 143.65 51.304C144.162 50.8027 144.418 50.0987 144.418 49.192V47.352C144.13 47.864 143.704 48.2907 143.138 48.632C142.573 48.9733 141.912 49.144 141.154 49.144C140.376 49.144 139.666 48.952 139.026 48.568C138.397 48.184 137.901 47.6453 137.538 46.952C137.176 46.2587 136.994 45.4693 136.994 44.584C136.994 43.688 137.176 42.904 137.538 42.232C137.901 41.5493 138.397 41.0213 139.026 40.648C139.666 40.2747 140.376 40.088 141.154 40.088ZM144.418 44.6C144.418 43.9387 144.285 43.3627 144.018 42.872C143.752 42.3813 143.389 42.008 142.93 41.752C142.482 41.4853 141.986 41.352 141.442 41.352C140.898 41.352 140.402 41.48 139.954 41.736C139.506 41.992 139.149 42.3653 138.882 42.856C138.616 43.3467 138.482 43.9227 138.482 44.584C138.482 45.256 138.616 45.8427 138.882 46.344C139.149 46.8347 139.506 47.2133 139.954 47.48C140.402 47.736 140.898 47.864 141.442 47.864C141.986 47.864 142.482 47.736 142.93 47.48C143.389 47.2133 143.752 46.8347 144.018 46.344C144.285 45.8427 144.418 45.2613 144.418 44.6ZM159.095 40.072C159.777 40.072 160.385 40.216 160.919 40.504C161.452 40.7813 161.873 41.2027 162.183 41.768C162.492 42.3333 162.647 43.0213 162.647 43.832V49H161.207V44.04C161.207 43.1653 160.988 42.4987 160.551 42.04C160.124 41.5707 159.543 41.336 158.807 41.336C158.049 41.336 157.447 41.5813 156.999 42.072C156.551 42.552 156.327 43.2507 156.327 44.168V49H154.887V44.04C154.887 43.1653 154.668 42.4987 154.231 42.04C153.804 41.5707 153.223 41.336 152.487 41.336C151.729 41.336 151.127 41.5813 150.679 42.072C150.231 42.552 150.007 43.2507 150.007 44.168V49H148.551V40.232H150.007V41.496C150.295 41.0373 150.679 40.6853 151.159 40.44C151.649 40.1947 152.188 40.072 152.775 40.072C153.511 40.072 154.161 40.2373 154.727 40.568C155.292 40.8987 155.713 41.384 155.991 42.024C156.236 41.4053 156.641 40.9253 157.207 40.584C157.772 40.2427 158.401 40.072 159.095 40.072ZM164.691 44.584C164.691 43.688 164.872 42.904 165.235 42.232C165.598 41.5493 166.094 41.0213 166.723 40.648C167.363 40.2747 168.072 40.088 168.851 40.088C169.619 40.088 170.286 40.2533 170.851 40.584C171.416 40.9147 171.838 41.3307 172.115 41.832V40.232H173.587V49H172.115V47.368C171.827 47.88 171.395 48.3067 170.819 48.648C170.254 48.9787 169.592 49.144 168.835 49.144C168.056 49.144 167.352 48.952 166.723 48.568C166.094 48.184 165.598 47.6453 165.235 46.952C164.872 46.2587 164.691 45.4693 164.691 44.584ZM172.115 44.6C172.115 43.9387 171.982 43.3627 171.715 42.872C171.448 42.3813 171.086 42.008 170.627 41.752C170.179 41.4853 169.683 41.352 169.139 41.352C168.595 41.352 168.099 41.48 167.651 41.736C167.203 41.992 166.846 42.3653 166.579 42.856C166.312 43.3467 166.179 43.9227 166.179 44.584C166.179 45.256 166.312 45.8427 166.579 46.344C166.846 46.8347 167.203 47.2133 167.651 47.48C168.099 47.736 168.595 47.864 169.139 47.864C169.683 47.864 170.179 47.736 170.627 47.48C171.086 47.2133 171.448 46.8347 171.715 46.344C171.982 45.8427 172.115 45.2613 172.115 44.6ZM177 38.808C176.722 38.808 176.488 38.712 176.296 38.52C176.104 38.328 176.008 38.0933 176.008 37.816C176.008 37.5387 176.104 37.304 176.296 37.112C176.488 36.92 176.722 36.824 177 36.824C177.266 36.824 177.49 36.92 177.672 37.112C177.864 37.304 177.96 37.5387 177.96 37.816C177.96 38.0933 177.864 38.328 177.672 38.52C177.49 38.712 177.266 38.808 177 38.808ZM177.704 40.232V49H176.248V40.232H177.704ZM181.841 37.16V49H180.385V37.16H181.841ZM184.987 49.096C184.709 49.096 184.475 49 184.283 48.808C184.091 48.616 183.995 48.3813 183.995 48.104C183.995 47.8267 184.091 47.592 184.283 47.4C184.475 47.208 184.709 47.112 184.987 47.112C185.253 47.112 185.477 47.208 185.659 47.4C185.851 47.592 185.947 47.8267 185.947 48.104C185.947 48.3813 185.851 48.616 185.659 48.808C185.477 49 185.253 49.096 184.987 49.096ZM187.538 44.6C187.538 43.6933 187.719 42.904 188.082 42.232C188.445 41.5493 188.946 41.0213 189.586 40.648C190.237 40.2747 190.978 40.088 191.81 40.088C192.887 40.088 193.773 40.3493 194.466 40.872C195.17 41.3947 195.634 42.12 195.858 43.048H194.29C194.141 42.5147 193.847 42.0933 193.41 41.784C192.983 41.4747 192.45 41.32 191.81 41.32C190.978 41.32 190.306 41.608 189.794 42.184C189.282 42.7493 189.026 43.5547 189.026 44.6C189.026 45.656 189.282 46.472 189.794 47.048C190.306 47.624 190.978 47.912 191.81 47.912C192.45 47.912 192.983 47.7627 193.41 47.464C193.837 47.1653 194.13 46.7387 194.29 46.184H195.858C195.623 47.08 195.154 47.8 194.45 48.344C193.746 48.8773 192.866 49.144 191.81 49.144C190.978 49.144 190.237 48.9573 189.586 48.584C188.946 48.2107 188.445 47.6827 188.082 47C187.719 46.3173 187.538 45.5173 187.538 44.6ZM201.825 49.144C201.003 49.144 200.257 48.9573 199.585 48.584C198.923 48.2107 198.401 47.6827 198.017 47C197.643 46.3067 197.457 45.5067 197.457 44.6C197.457 43.704 197.649 42.9147 198.033 42.232C198.427 41.5387 198.961 41.0107 199.633 40.648C200.305 40.2747 201.057 40.088 201.889 40.088C202.721 40.088 203.473 40.2747 204.145 40.648C204.817 41.0107 205.345 41.5333 205.729 42.216C206.123 42.8987 206.321 43.6933 206.321 44.6C206.321 45.5067 206.118 46.3067 205.713 47C205.318 47.6827 204.779 48.2107 204.097 48.584C203.414 48.9573 202.657 49.144 201.825 49.144ZM201.825 47.864C202.347 47.864 202.838 47.7413 203.297 47.496C203.755 47.2507 204.123 46.8827 204.401 46.392C204.689 45.9013 204.833 45.304 204.833 44.6C204.833 43.896 204.694 43.2987 204.417 42.808C204.139 42.3173 203.777 41.9547 203.329 41.72C202.881 41.4747 202.395 41.352 201.873 41.352C201.339 41.352 200.849 41.4747 200.401 41.72C199.963 41.9547 199.611 42.3173 199.345 42.808C199.078 43.2987 198.945 43.896 198.945 44.6C198.945 45.3147 199.073 45.9173 199.329 46.408C199.595 46.8987 199.947 47.2667 200.385 47.512C200.822 47.7467 201.302 47.864 201.825 47.864ZM218.979 40.072C219.662 40.072 220.27 40.216 220.803 40.504C221.336 40.7813 221.758 41.2027 222.067 41.768C222.376 42.3333 222.531 43.0213 222.531 43.832V49H221.091V44.04C221.091 43.1653 220.872 42.4987 220.435 42.04C220.008 41.5707 219.427 41.336 218.691 41.336C217.934 41.336 217.331 41.5813 216.883 42.072C216.435 42.552 216.211 43.2507 216.211 44.168V49H214.771V44.04C214.771 43.1653 214.552 42.4987 214.115 42.04C213.688 41.5707 213.107 41.336 212.371 41.336C211.614 41.336 211.011 41.5813 210.563 42.072C210.115 42.552 209.891 43.2507 209.891 44.168V49H208.435V40.232H209.891V41.496C210.179 41.0373 210.563 40.6853 211.043 40.44C211.534 40.1947 212.072 40.072 212.659 40.072C213.395 40.072 214.046 40.2373 214.611 40.568C215.176 40.8987 215.598 41.384 215.875 42.024C216.12 41.4053 216.526 40.9253 217.091 40.584C217.656 40.2427 218.286 40.072 218.979 40.072Z" fill="#757575"/>
<path d="M279.864 24.803L279.687 24.9798L279.864 24.803C279.571 24.5101 279.096 24.5101 278.803 24.803L274 29.606L269.197 24.803C268.904 24.5101 268.429 24.5101 268.136 24.803C267.844 25.0959 267.844 25.5708 268.136 25.8637L273.47 31.197C273.763 31.4899 274.238 31.4899 274.53 31.197L279.864 25.8637C280.157 25.5708 280.157 25.0959 279.864 24.803Z" fill="#757575" stroke="#757575" stroke-width="0.5" stroke-linecap="round" stroke-linejoin="round"/>
<circle cx="28" cy="28" r="28" fill="#046639"/>
<path d="M38.3031 39.2628C37.6954 37.5617 36.3562 36.0586 34.4934 34.9865C32.6305 33.9144 30.348 33.3333 27.9999 33.3333C25.6518 33.3333 23.3693 33.9144 21.5065 34.9865C19.6436 36.0586 18.3044 37.5617 17.6967 39.2628" stroke="white" stroke-width="2" stroke-linecap="round"/>
<ellipse cx="28.0001" cy="22.6667" rx="5.33333" ry="5.33333" stroke="white" stroke-width="2" stroke-linecap="round"/>
</svg>
